# Blender 3.4.0
# www.blender.org
mtllib ManipulationTool.mtl
o Cone
v 0.000000 1.721147 -0.102863
v 0.060461 1.721147 -0.083218
v 0.097829 1.721147 -0.031786
v 0.097829 1.721147 0.031786
v 0.060461 1.721147 0.083218
v 0.000000 1.721147 0.102863
v -0.060461 1.721147 0.083218
v -0.097829 1.721147 0.031786
v -0.097829 1.721147 -0.031786
v -0.060461 1.721147 -0.083218
v 0.000000 2.208582 0.000000
v 0.000000 1.721147 -0.243718
v 0.143254 1.721147 -0.197172
v 0.231789 1.721147 -0.075313
v 0.231789 1.721147 0.075313
v 0.143254 1.721147 0.197172
v 0.000000 1.721147 0.243718
v -0.143254 1.721147 0.197172
v -0.231789 1.721147 0.075313
v -0.231789 1.721147 -0.075313
v -0.143254 1.721147 -0.197172
v -0.000000 0.053477 -0.102863
v 0.060461 0.053477 -0.083218
v 0.097828 0.053477 -0.031786
v 0.097828 0.053477 0.031786
v 0.060461 0.053477 0.083218
v -0.000000 0.053477 0.102863
v -0.060462 0.053477 0.083218
v -0.097829 0.053477 0.031786
v -0.097829 0.053477 -0.031786
v -0.060462 0.053477 -0.083218
vn 0.2791 0.4294 -0.8589
vn 0.7306 0.4294 -0.5308
vn 0.9031 0.4294 -0.0000
vn 0.7306 0.4294 0.5308
vn 0.2791 0.4294 0.8589
vn -0.2791 0.4294 0.8589
vn -0.7306 0.4294 0.5308
vn -0.9031 0.4294 -0.0000
vn 1.0000 -0.0000 -0.0000
vn -0.7306 0.4294 -0.5308
vn -0.2791 0.4294 -0.8589
vn -0.0000 -1.0000 -0.0000
vn -0.3090 -0.0000 -0.9511
vn -0.8090 -0.0000 0.5878
vn 0.8090 -0.0000 0.5878
vn 0.3090 -0.0000 -0.9511
vn -1.0000 -0.0000 -0.0000
vn 0.3090 -0.0000 0.9511
vn 0.8090 -0.0000 -0.5878
vn -0.8090 -0.0000 -0.5878
vn -0.3090 -0.0000 0.9511
vt 0.750000 0.351294
vt 0.809539 0.331949
vt 0.846336 0.281302
vt 0.846336 0.218698
vt 0.809539 0.168051
vt 0.750000 0.148706
vt 0.690461 0.168051
vt 0.653664 0.218698
vt 0.653664 0.281302
vt 0.690461 0.331949
vt 0.250000 0.250000
vt 0.250000 0.490000
vt 0.750000 0.490000
vt 0.391068 0.444164
vt 0.891068 0.444164
vt 0.478254 0.324164
vt 0.978254 0.324164
vt 0.478254 0.175836
vt 0.978254 0.175836
vt 0.391068 0.055836
vt 0.891068 0.055836
vt 0.250000 0.010000
vt 0.750000 0.010000
vt 0.108932 0.055836
vt 0.608932 0.055836
vt 0.021746 0.175836
vt 0.521746 0.175836
vt 0.021746 0.324164
vt 0.521746 0.324164
vt 0.108932 0.444164
vt 0.608932 0.444164
vt 0.750000 0.351294
vt 0.809539 0.331949
vt 0.846336 0.281302
vt 0.846336 0.218698
vt 0.809539 0.168051
vt 0.750000 0.148706
vt 0.690461 0.168051
vt 0.653664 0.218698
vt 0.653664 0.281302
vt 0.690461 0.331949
s 0
f 12/12/1 11/11/1 13/14/1
f 13/14/2 11/11/2 14/16/2
f 14/16/3 11/11/3 15/18/3
f 15/18/4 11/11/4 16/20/4
f 16/20/5 11/11/5 17/22/5
f 17/22/6 11/11/6 18/24/6
f 18/24/7 11/11/7 19/26/7
f 19/26/8 11/11/8 20/28/8
f 4/4/9 24/34/9 3/3/9
f 20/28/10 11/11/10 21/30/10
f 21/30/11 11/11/11 12/12/11
f 2/2/12 12/13/12 13/15/12
f 2/2/12 14/17/12 3/3/12
f 3/3/12 15/19/12 4/4/12
f 5/5/12 15/19/12 16/21/12
f 5/5/12 17/23/12 6/6/12
f 7/7/12 17/23/12 18/25/12
f 7/7/12 19/27/12 8/8/12
f 8/8/12 20/29/12 9/9/12
f 10/10/12 20/29/12 21/31/12
f 10/10/12 12/13/12 1/1/12
f 25/35/12 27/37/12 29/39/12
f 10/10/13 22/32/13 31/41/13
f 8/8/14 28/38/14 7/7/14
f 5/5/15 25/35/15 4/4/15
f 1/1/16 23/33/16 22/32/16
f 9/9/17 29/39/17 8/8/17
f 6/6/18 26/36/18 5/5/18
f 2/2/19 24/34/19 23/33/19
f 9/9/20 31/41/20 30/40/20
f 7/7/21 27/37/21 6/6/21
f 4/4/9 25/35/9 24/34/9
f 2/2/12 1/1/12 12/13/12
f 2/2/12 13/15/12 14/17/12
f 3/3/12 14/17/12 15/19/12
f 5/5/12 4/4/12 15/19/12
f 5/5/12 16/21/12 17/23/12
f 7/7/12 6/6/12 17/23/12
f 7/7/12 18/25/12 19/27/12
f 8/8/12 19/27/12 20/29/12
f 10/10/12 9/9/12 20/29/12
f 10/10/12 21/31/12 12/13/12
f 31/41/12 22/32/12 23/33/12
f 23/33/12 24/34/12 25/35/12
f 25/35/12 26/36/12 27/37/12
f 27/37/12 28/38/12 29/39/12
f 29/39/12 30/40/12 25/35/12
f 30/40/12 31/41/12 25/35/12
f 31/41/12 23/33/12 25/35/12
f 10/10/13 1/1/13 22/32/13
f 8/8/14 29/39/14 28/38/14
f 5/5/15 26/36/15 25/35/15
f 1/1/16 2/2/16 23/33/16
f 9/9/17 30/40/17 29/39/17
f 6/6/18 27/37/18 26/36/18
f 2/2/19 3/3/19 24/34/19
f 9/9/20 10/10/20 31/41/20
f 7/7/21 28/38/21 27/37/21
